<svg id="Layer_1" data-name="Layer 1" xmlns="http://www.w3.org/2000/svg" viewBox="0 0 207.02 56.69"><defs><style>.cls-1{fill:#231f20;}.cls-2{fill:#939598;}</style></defs><path class="cls-1" d="M106.09,48.59V32.4h5V44.78h17.1v3.81Z"/><path class="cls-1" d="M155.59,48.59,145.94,32.4h-5l-9.65,16.19h5.1l1.69-2.74h10.73l1.68,2.74Zm-12.93-6h-2.57l3.35-5.44,3.35,5.44Z"/><path class="cls-1" d="M158.74,48.59V32.4h17.68c3.3,0,4.27.74,4.27,3.41V37.6c0,1.51-.6,2.33-1.65,2.63,1.17.35,1.75,1.14,1.75,2.88V44.9c0,3.23-1.26,3.69-4.58,3.69ZM176,36.25c0-.37-.12-.44-.49-.44h-12v2.81h12c.37,0,.49-.09.49-.41Zm0,6c0-.33-.12-.4-.49-.4h-12V45h12c.37,0,.49-.07.49-.42Z"/><path class="cls-1" d="M185,48.59V44.9h16.62c.37,0,.49-.09.49-.42V42.39c0-.3-.12-.4-.49-.4H189.5c-3.58,0-4.54-.79-4.54-3.71V36.07c0-2.88,1.07-3.67,4.54-3.67h16.72v3.51H190.31c-.37,0-.49.09-.49.44v1.79c0,.32.12.41.49.41h12.13c3.53,0,4.58.72,4.58,3.61v2.67c0,3.09-1.05,3.76-4.58,3.76Z"/><polygon class="cls-2" points="65.6 32.4 89.9 32.4 89.9 56.69 65.6 32.4"/><polygon class="cls-2" points="53.45 20.25 69.65 20.25 69.65 36.45 53.45 20.25"/><polygon class="cls-2" points="41.3 8.1 57.5 8.1 57.5 24.3 41.3 8.1"/><polygon class="cls-2" points="49.4 0 57.5 0 57.5 8.1 49.4 0"/><polygon class="cls-2" points="49.4 56.69 57.5 56.69 57.5 48.59 49.4 56.69"/><polygon class="cls-1" points="11.03 38.47 4.95 32.4 0 32.4 0 48.59 4.95 48.59 4.95 38.47 11.03 44.54 17.1 38.47 17.1 48.59 22.05 48.59 22.05 32.4 17.1 32.4 11.03 38.47"/><polygon class="cls-1" points="43.2 32.4 37.35 37.43 31.5 32.4 25.2 32.4 34.88 41.39 34.88 48.59 37.35 48.59 39.81 48.59 39.81 41.39 49.49 32.4 43.2 32.4"/><path class="cls-1" d="M69.09,43h.65c2.4-.09,3.74-.65,3.74-3.46V35.88c0-2.72-1-3.48-4.46-3.48H52.64V43.74l4.86,4.85h0V43h5.71l5.6,5.6h5.88Zm-.42-4c0,.35-.11.42-.46.42H57.5V35.91H68.21c.35,0,.46.07.46.44Z"/></svg>