<svg width="301" height="78" viewBox="0 0 301 78" fill="none" xmlns="http://www.w3.org/2000/svg">
<path fill-rule="evenodd" clip-rule="evenodd" d="M30.2081 21.1561C22.8981 28.0249 17.9252 36.6239 18.9847 46.0308C21.7833 46.6993 24.7272 47.3814 27.6808 47.9367C28.8083 48.1487 29.9198 48.3384 31.0064 48.4991C29.7354 47.371 28.8946 45.8137 28.6201 43.7205C27.7618 37.1766 31.7749 30.9929 37.4537 25.9749C36.0579 24.8667 34.5781 23.8219 33.0558 22.8534C32.1142 22.2544 31.1613 21.6877 30.2081 21.1561ZM39 24.6693C36.7291 22.835 34.2569 21.181 31.7617 19.7521C34.0232 17.7851 36.4683 15.9763 39 14.3499C41.5318 15.9763 43.9768 17.7851 46.2383 19.7521C43.7431 21.181 41.2709 22.835 39 24.6693ZM39 51.0323C33.1942 51.2766 25.8511 49.7018 19.3253 48.1555C19.3625 48.3339 19.4018 48.5126 19.4435 48.6915C20.7883 54.4752 24.0722 57.6881 28.1907 59.335C31.384 59.973 35.179 60.6358 39 60.7998C42.821 60.6358 46.616 59.973 49.8093 59.335C53.9279 57.6881 57.2117 54.4752 58.5566 48.6915C58.5982 48.5126 58.6375 48.3339 58.6747 48.1555C52.1489 49.7018 44.8058 51.2767 39 51.0323ZM60.7869 47.6507C60.7024 48.1461 60.6024 48.6437 60.4862 49.1434C59.5571 53.139 57.7588 56.0986 55.389 58.2188C56.8252 57.976 57.7858 57.9175 58.0821 58.2149C58.9745 59.1104 56.9532 61.3167 54.6879 63.7892C51.9231 66.8068 48.7949 70.2212 50.1563 72.1338C52.6331 75.6135 60.7433 67.8925 66.763 61.6947C73.0728 55.1982 78.8876 48.9898 74.4293 45.7874C72.9529 44.7269 67.6738 45.9956 61.192 47.5534C61.0575 47.5857 60.9224 47.6182 60.7869 47.6507ZM48.0879 18.7356C45.8275 16.7184 43.3876 14.8646 40.8641 13.1942C54.6253 4.963 70.2002 2.1355 72.7074 8.42638C73.8963 11.4093 68.9195 18.8122 66.763 17.8713C65.4941 17.3177 65.5077 16.4512 65.5194 15.7011C65.5277 15.1765 65.535 14.7088 65.1019 14.4449C62.7378 13.0046 55.5057 14.827 48.0879 18.7356Z" fill="white"/>
<path d="M11.237 17.8713C9.08055 18.8122 4.10373 11.4093 5.2926 8.42638C10.2144 -3.92278 65.4917 18.8654 58.5566 48.6915C53.5681 70.1454 21.8994 56.2265 19.9179 58.2149C17.9364 60.2034 30.3206 68.6541 27.8438 72.1338C25.3669 75.6135 17.2567 67.8925 11.237 61.6947C4.92728 55.1982 -0.887552 48.9898 3.57076 45.7874C8.02907 42.585 47.1631 60.622 49.3799 43.7205C51.6967 26.0572 18.5221 11.0185 12.8981 14.4449C11.8459 15.086 13.3935 16.9304 11.237 17.8713Z" fill="#FDC904"/>
<path d="M144.703 52.9297C144.703 53.3672 144.625 53.7735 144.469 54.1485C144.312 54.5235 144.094 54.8516 143.812 55.1328C143.547 55.3985 143.227 55.6094 142.852 55.7657C142.477 55.9219 142.07 56 141.633 56H119.648C119.086 56 118.477 55.9375 117.82 55.8125C117.18 55.6719 116.539 55.461 115.898 55.1797C115.273 54.8985 114.672 54.5391 114.094 54.1016C113.516 53.6485 113 53.1094 112.547 52.4844C112.109 51.8438 111.758 51.1094 111.492 50.2813C111.227 49.4375 111.094 48.4922 111.094 47.4453V30.9453C111.094 30.3828 111.156 29.7813 111.281 29.1407C111.422 28.4844 111.633 27.8438 111.914 27.2188C112.195 26.5782 112.562 25.9688 113.016 25.3907C113.469 24.8125 114.008 24.3047 114.633 23.8672C115.273 23.4141 116.008 23.0547 116.836 22.7891C117.664 22.5235 118.602 22.3907 119.648 22.3907H144.422V28.4844H119.648C118.852 28.4844 118.242 28.6953 117.82 29.1172C117.398 29.5391 117.188 30.1641 117.188 30.9922V47.4453C117.188 48.2266 117.398 48.836 117.82 49.2735C118.258 49.6953 118.867 49.9063 119.648 49.9063H138.609V42.2657H122.391V36.125H141.633C142.07 36.125 142.477 36.211 142.852 36.3828C143.227 36.5391 143.547 36.7578 143.812 37.0391C144.094 37.3203 144.312 37.6485 144.469 38.0235C144.625 38.3828 144.703 38.7735 144.703 39.1953V52.9297Z" fill="white"/>
<path d="M171.739 41.9375H149.754V36.4532H171.739V41.9375Z" fill="white"/>
<path d="M208.384 56H180.587C180.149 56 179.743 55.9219 179.368 55.7657C178.993 55.6094 178.665 55.3985 178.384 55.1328C178.118 54.8516 177.907 54.5235 177.751 54.1485C177.595 53.7735 177.517 53.3672 177.517 52.9297V22.3907H183.61V49.9063H208.384V56Z" fill="white"/>
<path d="M218.521 56H212.427V22.3907H218.521V56Z" fill="white"/>
<path d="M258.752 53.3985C258.752 53.836 258.666 54.2422 258.494 54.6172C258.338 54.9922 258.119 55.3203 257.838 55.6016C257.572 55.8672 257.252 56.0782 256.877 56.2344C256.502 56.3907 256.103 56.4688 255.682 56.4688C255.307 56.4688 254.924 56.3985 254.533 56.2578C254.158 56.1172 253.822 55.8907 253.525 55.5782L231.26 32.3282V56H225.166V24.9922C225.166 24.3672 225.338 23.8047 225.682 23.3047C226.041 22.7891 226.494 22.4063 227.041 22.1563C227.619 21.9219 228.213 21.8672 228.822 21.9922C229.432 22.1016 229.955 22.3828 230.393 22.836L252.658 46.0625V22.3907H258.752V53.3985Z" fill="white"/>
<path d="M300.6 56H291.952L278.241 42.2657H273.952V36.125H278.241L291.952 22.3907H300.6L283.327 39.1953L300.6 56ZM271.514 56H265.42V22.3907H271.514V56Z" fill="white"/>
</svg>
